<svg width="45" height="45" viewBox="0 0 45 45" fill="none" xmlns="http://www.w3.org/2000/svg">
<path d="M39.0459 13.1139C37.4992 11.4034 34.9151 10.5481 31.1664 10.5481H30.7297V10.4753C30.7297 7.41813 30.7297 3.63306 23.8875 3.63306H21.1214C14.2792 3.63306 14.2792 7.43633 14.2792 10.4753V10.5663H13.8425C10.0756 10.5663 7.50975 11.4216 5.96296 13.1321C4.16141 15.1339 4.21601 17.8271 4.39798 19.665L4.41618 19.7924L4.57631 21.4738C4.59013 21.6189 4.66793 21.7497 4.78965 21.8299C5.17768 22.0855 6.06229 22.6621 6.56348 22.9406C6.81824 23.1043 7.0912 23.2499 7.36417 23.3955C10.4759 25.1061 13.8971 26.2525 17.3728 26.8166C17.5365 28.5272 18.2826 30.5289 22.2679 30.5289C26.2531 30.5289 27.0356 28.5454 27.163 26.7802C30.8753 26.1797 34.4602 24.8877 37.6993 22.9952C37.8085 22.9406 37.8813 22.886 37.9723 22.8314C38.7477 22.3931 39.5543 21.8455 40.2765 21.3188C40.3855 21.2393 40.4556 21.1173 40.4705 20.9831L40.5199 20.5385L40.6109 19.6832C40.6291 19.574 40.6291 19.483 40.6473 19.3557C40.7929 17.5177 40.7565 15.0065 39.0459 13.1139ZM24.488 25.5792C24.488 27.5081 24.488 27.7993 22.2497 27.7993C20.0114 27.7993 20.0114 27.4535 20.0114 25.5974V23.3045H24.488V25.5792ZM16.8814 10.5481V10.4753C16.8814 7.38173 16.8814 6.23529 21.1214 6.23529H23.8875C28.1275 6.23529 28.1275 7.39993 28.1275 10.4753V10.5663H16.8814V10.5481Z" fill="#555555" fill-opacity="0.2"/>
<path d="M39.3427 25.0733C39.6842 24.908 40.0754 25.1803 40.0411 25.5581L39.319 33.5131C38.9368 37.1526 37.4446 40.8649 29.4378 40.8649H15.5713C7.56441 40.8649 6.07222 37.1526 5.69007 33.5313L5.0026 25.969C4.96865 25.5956 5.35095 25.3236 5.69163 25.4802C7.53157 26.3263 12.2419 28.4332 14.8608 29.0688C15.0207 29.1076 15.1502 29.2211 15.2144 29.3726C16.2728 31.8715 18.7068 33.2037 22.268 33.2037C25.7938 33.2037 28.2608 31.8203 29.3214 29.3182C29.3857 29.1666 29.515 29.0532 29.675 29.0143C32.4492 28.3405 37.4302 25.9986 39.3427 25.0733Z" fill="#555555" fill-opacity="0.2"/>
</svg>
