<svg width="45" height="45" viewBox="0 0 45 45" fill="none" xmlns="http://www.w3.org/2000/svg">
<path d="M22.7539 4.05151C17.9862 4.05151 14.1101 7.92757 14.1101 12.6953C14.1101 17.3721 17.7678 21.1571 22.5355 21.3209C22.6811 21.3027 22.8267 21.3027 22.9359 21.3209C22.9723 21.3209 22.9905 21.3209 23.0269 21.3209C23.0451 21.3209 23.0451 21.3209 23.0633 21.3209C27.7218 21.1571 31.3795 17.3721 31.3977 12.6953C31.3977 7.92757 27.5216 4.05151 22.7539 4.05151Z" fill="#555555" fill-opacity="0.2"/>
<path d="M31.9982 26.1616C26.9211 22.7769 18.6413 22.7769 13.5278 26.1616C11.2167 27.7084 9.94287 29.8011 9.94287 32.0394C9.94287 34.2777 11.2167 36.3522 13.5096 37.8808C16.0572 39.5913 19.4055 40.4466 22.7539 40.4466C26.1022 40.4466 29.4505 39.5913 31.9982 37.8808C34.2911 36.334 35.5649 34.2595 35.5649 32.003C35.5467 29.7647 34.2911 27.6902 31.9982 26.1616Z" fill="#555555" fill-opacity="0.2"/>
</svg>
