<svg width="254" height="420" viewBox="0 0 254 420" fill="none" xmlns="http://www.w3.org/2000/svg">
<path d="M-275.063 291.309C-228.23 346.309 -134.82 372.341 -5.03005 345.376C167.835 309.461 279.234 181.485 233.324 76.3476C197.896 -4.78527 60.6426 -2.42583 -60.1574 35.0803M-275.063 291.309C-290.606 273.056 -301.019 251.611 -305.929 227.855C-322.231 148.974 -242.479 40.5631 -60.1574 35.0803M-275.063 291.309C-298.155 216.693 -257.822 128.871 -159.993 76.3475C-130.197 60.35 -95.8974 46.1769 -60.1574 35.0803M-275.063 291.309C-267.349 316.234 -252.559 339.685 -230.47 359.855C-164.965 419.671 -10.0456 432.186 126.897 363.13M-60.1574 35.0803C-22.1195 33.9364 20.3829 37.2727 67.4089 46.292" stroke="#353535" stroke-width="20"/>
</svg>
