<svg width="156" height="33" viewBox="0 0 156 33" fill="none" xmlns="http://www.w3.org/2000/svg">
<path d="M30.25 6.66856V23.0173C30.25 24.3511 29.1637 25.5748 27.83 25.7398L27.4037 25.7948C25.1487 26.0973 21.9725 27.0323 19.415 28.1048C18.5212 28.4761 17.5312 27.8023 17.5312 26.8261V7.69981C17.5312 7.19106 17.82 6.72356 18.2737 6.47606C20.79 5.11481 24.5988 3.90481 27.1838 3.68481H27.2662C28.9162 3.68481 30.25 5.01856 30.25 6.66856Z" fill="white"/>
<path d="M14.7262 6.47606C12.21 5.11481 8.40121 3.90481 5.81621 3.68481H5.71996C4.06996 3.68481 2.73621 5.01856 2.73621 6.66856V23.0173C2.73621 24.3511 3.82246 25.5748 5.15621 25.7398L5.58246 25.7948C7.83746 26.0973 11.0137 27.0323 13.5712 28.1048C14.465 28.4761 15.455 27.8023 15.455 26.8261V7.69981C15.455 7.17731 15.18 6.72356 14.7262 6.47606ZM6.87496 10.6423H9.96871C10.5325 10.6423 11 11.1098 11 11.6736C11 12.2511 10.5325 12.7048 9.96871 12.7048H6.87496C6.31121 12.7048 5.84371 12.2511 5.84371 11.6736C5.84371 11.1098 6.31121 10.6423 6.87496 10.6423ZM11 16.8298H6.87496C6.31121 16.8298 5.84371 16.3761 5.84371 15.7986C5.84371 15.2348 6.31121 14.7673 6.87496 14.7673H11C11.5637 14.7673 12.0312 15.2348 12.0312 15.7986C12.0312 16.3761 11.5637 16.8298 11 16.8298Z" fill="white"/>
<path d="M42.8208 24.5V8.33H45.7776V22.19H52.9386V24.5H42.8208ZM60.5228 24.7772C59.3678 24.7772 58.3437 24.5308 57.4505 24.038C56.5573 23.5452 55.8566 22.8522 55.3484 21.959C54.8402 21.0658 54.5861 20.034 54.5861 18.8636C54.5861 17.6778 54.8325 16.6229 55.3253 15.6989C55.8335 14.7749 56.5265 14.0588 57.4043 13.5506C58.2975 13.027 59.3447 12.7652 60.5459 12.7652C61.6701 12.7652 62.6634 13.0116 63.5258 13.5044C64.3882 13.9972 65.0581 14.6748 65.5355 15.5372C66.0283 16.3842 66.2747 17.3313 66.2747 18.3785C66.2747 18.5479 66.267 18.725 66.2516 18.9098C66.2516 19.0946 66.2439 19.2871 66.2285 19.4873H57.5198C57.5814 20.3805 57.8894 21.0812 58.4438 21.5894C59.0136 22.0976 59.6989 22.3517 60.4997 22.3517C61.1003 22.3517 61.6008 22.2208 62.0012 21.959C62.417 21.6818 62.725 21.3276 62.9252 20.8964H65.9282C65.7126 21.6202 65.3507 22.2824 64.8425 22.883C64.3497 23.4682 63.7337 23.9302 62.9945 24.269C62.2707 24.6078 61.4468 24.7772 60.5228 24.7772ZM60.5459 15.1676C59.8221 15.1676 59.183 15.3755 58.6286 15.7913C58.0742 16.1917 57.72 16.8077 57.566 17.6393H63.2717C63.2255 16.8847 62.9483 16.2841 62.4401 15.8375C61.9319 15.3909 61.3005 15.1676 60.5459 15.1676ZM72.7117 24.7772C71.7261 24.7772 70.9176 24.6232 70.2862 24.3152C69.6548 23.9918 69.1851 23.5683 68.8771 23.0447C68.5691 22.5211 68.4151 21.9436 68.4151 21.3122C68.4151 20.2496 68.8309 19.3872 69.6625 18.725C70.4941 18.0628 71.7415 17.7317 73.4047 17.7317H76.3153V17.4545C76.3153 16.6691 76.092 16.0916 75.6454 15.722C75.1988 15.3524 74.6444 15.1676 73.9822 15.1676C73.3816 15.1676 72.858 15.3139 72.4114 15.6065C71.9648 15.8837 71.6876 16.2995 71.5798 16.8539H68.6923C68.7693 16.0223 69.0465 15.2985 69.5239 14.6825C70.0167 14.0665 70.6481 13.5968 71.4181 13.2734C72.1881 12.9346 73.0505 12.7652 74.0053 12.7652C75.6377 12.7652 76.9236 13.1733 77.863 13.9895C78.8024 14.8057 79.2721 15.9607 79.2721 17.4545V24.5H76.7542L76.477 22.652C76.1382 23.268 75.6608 23.7762 75.0448 24.1766C74.4442 24.577 73.6665 24.7772 72.7117 24.7772ZM73.3816 22.4672C74.2286 22.4672 74.8831 22.19 75.3451 21.6356C75.8225 21.0812 76.1228 20.3959 76.246 19.5797H73.7281C72.9427 19.5797 72.3806 19.726 72.0418 20.0186C71.703 20.2958 71.5336 20.6423 71.5336 21.0581C71.5336 21.5047 71.703 21.8512 72.0418 22.0976C72.3806 22.344 72.8272 22.4672 73.3816 22.4672ZM82.0937 24.5V13.0424H84.7271L85.0043 15.1907C85.4201 14.4515 85.9822 13.8663 86.6906 13.4351C87.4144 12.9885 88.2614 12.7652 89.2316 12.7652V15.8837H88.4C87.7532 15.8837 87.1757 15.9838 86.6675 16.184C86.1593 16.3842 85.7589 16.7307 85.4663 17.2235C85.1891 17.7163 85.0505 18.4016 85.0505 19.2794V24.5H82.0937ZM91.2525 24.5V13.0424H93.8628L94.0938 14.9828C94.448 14.3052 94.9562 13.7662 95.6184 13.3658C96.296 12.9654 97.0891 12.7652 97.9977 12.7652C99.4145 12.7652 100.516 13.2118 101.301 14.105C102.086 14.9982 102.479 16.3072 102.479 18.032V24.5H99.5223V18.3092C99.5223 17.3236 99.3221 16.569 98.9217 16.0454C98.5213 15.5218 97.8976 15.26 97.0506 15.26C96.219 15.26 95.5337 15.5526 94.9947 16.1378C94.4711 16.723 94.2093 17.5392 94.2093 18.5864V24.5H91.2525ZM105.376 24.5V8.33H115.817V10.7093H108.333V15.2369H114.385V17.57H108.333V24.5H105.376ZM118.03 24.5V7.868H120.986V24.5H118.03ZM129.505 24.7772C128.397 24.7772 127.396 24.5231 126.502 24.0149C125.625 23.5067 124.924 22.806 124.4 21.9128C123.892 21.0042 123.638 19.957 123.638 18.7712C123.638 17.5854 123.9 16.5459 124.423 15.6527C124.947 14.7441 125.648 14.0357 126.525 13.5275C127.419 13.0193 128.42 12.7652 129.528 12.7652C130.622 12.7652 131.607 13.0193 132.485 13.5275C133.378 14.0357 134.079 14.7441 134.587 15.6527C135.111 16.5459 135.373 17.5854 135.373 18.7712C135.373 19.957 135.111 21.0042 134.587 21.9128C134.079 22.806 133.378 23.5067 132.485 24.0149C131.592 24.5231 130.599 24.7772 129.505 24.7772ZM129.505 22.2131C130.275 22.2131 130.945 21.9282 131.515 21.3584C132.085 20.7732 132.37 19.9108 132.37 18.7712C132.37 17.6316 132.085 16.7769 131.515 16.2071C130.945 15.6219 130.283 15.3293 129.528 15.3293C128.743 15.3293 128.065 15.6219 127.496 16.2071C126.941 16.7769 126.664 17.6316 126.664 18.7712C126.664 19.9108 126.941 20.7732 127.496 21.3584C128.065 21.9282 128.735 22.2131 129.505 22.2131ZM139.851 24.5L136.502 13.0424H139.435L141.422 21.2891L143.732 13.0424H147.012L149.322 21.2891L151.332 13.0424H154.265L150.893 24.5H147.821L145.372 15.9299L142.923 24.5H139.851Z" fill="white"/>
</svg>
