<svg width="45" height="45" viewBox="0 0 45 45" fill="none" xmlns="http://www.w3.org/2000/svg">
<path d="M31.0444 28.8729C32.2636 28.0723 33.865 28.9457 33.865 30.4015V32.749C33.865 35.0601 32.0634 37.5349 29.8979 38.2628L24.0929 40.1918C23.0739 40.5375 21.4179 40.5375 20.4171 40.1918L14.6121 38.2628C12.4284 37.5349 10.645 35.0601 10.645 32.749V30.3833C10.645 28.9457 12.2464 28.0723 13.4474 28.8548L17.1961 31.2932C18.6337 32.2577 20.4534 32.7308 22.2732 32.7308C24.0929 32.7308 25.9127 32.2577 27.3503 31.2932L31.0444 28.8729Z" fill="#555555" fill-opacity="0.2"/>
<path d="M36.7765 12.1677L25.8762 5.01613C23.9109 3.72411 20.6717 3.72411 18.7064 5.01613L7.75151 12.1677C4.2394 14.4424 4.2394 19.5923 7.75151 21.8852L10.6631 23.7777L18.7064 29.0186C20.6717 30.3106 23.9109 30.3106 25.8762 29.0186L33.8649 23.7777L36.3579 22.1399V27.7084C36.3579 28.4545 36.9766 29.0732 37.7227 29.0732C38.4688 29.0732 39.0875 28.4545 39.0875 27.7084V18.7552C39.8154 16.4077 39.0693 13.6781 36.7765 12.1677Z" fill="#555555" fill-opacity="0.2"/>
</svg>
